<mxfile host="app.diagrams.net" agent="Mozilla/5.0 (Macintosh; Intel Mac OS X 10.15; rv:143.0) Gecko/20100101 Firefox/143.0" version="28.2.7">
  <diagram name="Page-1" id="lViirs-N-N4cMRjyAynd">
    <mxGraphModel dx="1018" dy="691" grid="1" gridSize="10" guides="1" tooltips="1" connect="1" arrows="1" fold="1" page="1" pageScale="1" pageWidth="850" pageHeight="1100" math="0" shadow="0">
      <root>
        <mxCell id="0" />
        <mxCell id="1" parent="0" />
        <mxCell id="7NhKazvvRvAiaTGZIOiZ-1" value="" style="rounded=0;whiteSpace=wrap;html=1;" vertex="1" parent="1">
          <mxGeometry x="50" y="178" width="160" height="160" as="geometry" />
        </mxCell>
        <mxCell id="7NhKazvvRvAiaTGZIOiZ-2" value="" style="html=1;verticalLabelPosition=bottom;align=center;labelBackgroundColor=#ffffff;verticalAlign=top;strokeWidth=2;strokeColor=#0080F0;shadow=0;dashed=0;shape=mxgraph.ios7.icons.documents;" vertex="1" parent="1">
          <mxGeometry x="110" y="238" width="50" height="60" as="geometry" />
        </mxCell>
        <mxCell id="7NhKazvvRvAiaTGZIOiZ-3" value="Confluence" style="text;html=1;strokeColor=none;fillColor=none;align=center;verticalAlign=middle;whiteSpace=wrap;rounded=0;" vertex="1" parent="1">
          <mxGeometry x="100" y="178" width="60" height="30" as="geometry" />
        </mxCell>
        <mxCell id="7NhKazvvRvAiaTGZIOiZ-4" value="Documents" style="text;html=1;strokeColor=none;fillColor=none;align=center;verticalAlign=middle;whiteSpace=wrap;rounded=0;" vertex="1" parent="1">
          <mxGeometry x="100" y="298" width="60" height="30" as="geometry" />
        </mxCell>
        <mxCell id="7NhKazvvRvAiaTGZIOiZ-5" style="edgeStyle=orthogonalEdgeStyle;rounded=0;orthogonalLoop=1;jettySize=auto;html=1;" edge="1" parent="1" source="7NhKazvvRvAiaTGZIOiZ-7" target="7NhKazvvRvAiaTGZIOiZ-11">
          <mxGeometry relative="1" as="geometry" />
        </mxCell>
        <mxCell id="7NhKazvvRvAiaTGZIOiZ-6" style="edgeStyle=orthogonalEdgeStyle;rounded=0;orthogonalLoop=1;jettySize=auto;html=1;" edge="1" parent="1" source="7NhKazvvRvAiaTGZIOiZ-7" target="7NhKazvvRvAiaTGZIOiZ-1">
          <mxGeometry relative="1" as="geometry" />
        </mxCell>
        <mxCell id="7NhKazvvRvAiaTGZIOiZ-15" style="edgeStyle=orthogonalEdgeStyle;rounded=0;orthogonalLoop=1;jettySize=auto;html=1;" edge="1" parent="1" source="7NhKazvvRvAiaTGZIOiZ-7" target="7NhKazvvRvAiaTGZIOiZ-14">
          <mxGeometry relative="1" as="geometry" />
        </mxCell>
        <mxCell id="7NhKazvvRvAiaTGZIOiZ-21" style="edgeStyle=orthogonalEdgeStyle;rounded=0;orthogonalLoop=1;jettySize=auto;html=1;" edge="1" parent="1" source="7NhKazvvRvAiaTGZIOiZ-7" target="7NhKazvvRvAiaTGZIOiZ-20">
          <mxGeometry relative="1" as="geometry" />
        </mxCell>
        <mxCell id="7NhKazvvRvAiaTGZIOiZ-44" style="edgeStyle=orthogonalEdgeStyle;rounded=0;orthogonalLoop=1;jettySize=auto;html=1;" edge="1" parent="1" source="7NhKazvvRvAiaTGZIOiZ-7" target="7NhKazvvRvAiaTGZIOiZ-43">
          <mxGeometry relative="1" as="geometry">
            <Array as="points">
              <mxPoint x="381" y="350" />
              <mxPoint x="269" y="350" />
            </Array>
          </mxGeometry>
        </mxCell>
        <mxCell id="7NhKazvvRvAiaTGZIOiZ-7" value="" style="sketch=0;points=[[0,0,0],[0.25,0,0],[0.5,0,0],[0.75,0,0],[1,0,0],[0,1,0],[0.25,1,0],[0.5,1,0],[0.75,1,0],[1,1,0],[0,0.25,0],[0,0.5,0],[0,0.75,0],[1,0.25,0],[1,0.5,0],[1,0.75,0]];outlineConnect=0;fontColor=#232F3E;fillColor=#ED7100;strokeColor=#ffffff;dashed=0;verticalLabelPosition=bottom;verticalAlign=top;align=center;html=1;fontSize=12;fontStyle=0;aspect=fixed;shape=mxgraph.aws4.resourceIcon;resIcon=mxgraph.aws4.lambda;" vertex="1" parent="1">
          <mxGeometry x="341.5" y="219" width="78" height="78" as="geometry" />
        </mxCell>
        <mxCell id="7NhKazvvRvAiaTGZIOiZ-8" style="edgeStyle=orthogonalEdgeStyle;rounded=0;orthogonalLoop=1;jettySize=auto;html=1;entryX=0.5;entryY=0;entryDx=0;entryDy=0;entryPerimeter=0;" edge="1" parent="1" source="7NhKazvvRvAiaTGZIOiZ-9" target="7NhKazvvRvAiaTGZIOiZ-7">
          <mxGeometry relative="1" as="geometry" />
        </mxCell>
        <mxCell id="7NhKazvvRvAiaTGZIOiZ-9" value="" style="sketch=0;points=[[0,0,0],[0.25,0,0],[0.5,0,0],[0.75,0,0],[1,0,0],[0,1,0],[0.25,1,0],[0.5,1,0],[0.75,1,0],[1,1,0],[0,0.25,0],[0,0.5,0],[0,0.75,0],[1,0.25,0],[1,0.5,0],[1,0.75,0]];outlineConnect=0;fontColor=#232F3E;fillColor=#E7157B;strokeColor=#ffffff;dashed=0;verticalLabelPosition=bottom;verticalAlign=top;align=center;html=1;fontSize=12;fontStyle=0;aspect=fixed;shape=mxgraph.aws4.resourceIcon;resIcon=mxgraph.aws4.eventbridge;" vertex="1" parent="1">
          <mxGeometry x="341" y="100" width="78" height="78" as="geometry" />
        </mxCell>
        <mxCell id="7NhKazvvRvAiaTGZIOiZ-10" value="Trigger every 15 minutes" style="text;html=1;strokeColor=none;fillColor=none;align=center;verticalAlign=middle;whiteSpace=wrap;rounded=0;" vertex="1" parent="1">
          <mxGeometry x="370" y="184" width="170" height="30" as="geometry" />
        </mxCell>
        <mxCell id="7NhKazvvRvAiaTGZIOiZ-11" value="SSM Parameter Store" style="sketch=0;outlineConnect=0;fontColor=#232F3E;gradientColor=none;fillColor=#E7157B;strokeColor=none;dashed=0;verticalLabelPosition=bottom;verticalAlign=top;align=center;html=1;fontSize=12;fontStyle=0;aspect=fixed;pointerEvents=1;shape=mxgraph.aws4.parameter_store;" vertex="1" parent="1">
          <mxGeometry x="342.5" y="400" width="75" height="78" as="geometry" />
        </mxCell>
        <mxCell id="7NhKazvvRvAiaTGZIOiZ-12" value="Fetch configuration and check last crawl time to determine whether fetching is to be done" style="text;html=1;strokeColor=none;fillColor=none;align=center;verticalAlign=middle;whiteSpace=wrap;rounded=0;" vertex="1" parent="1">
          <mxGeometry x="390" y="338" width="120" height="30" as="geometry" />
        </mxCell>
        <mxCell id="7NhKazvvRvAiaTGZIOiZ-13" value="Check changes and fetch modified documents" style="text;html=1;strokeColor=none;fillColor=none;align=center;verticalAlign=middle;whiteSpace=wrap;rounded=0;" vertex="1" parent="1">
          <mxGeometry x="230" y="280" width="90" height="30" as="geometry" />
        </mxCell>
        <mxCell id="7NhKazvvRvAiaTGZIOiZ-14" value="" style="sketch=0;points=[[0,0,0],[0.25,0,0],[0.5,0,0],[0.75,0,0],[1,0,0],[0,1,0],[0.25,1,0],[0.5,1,0],[0.75,1,0],[1,1,0],[0,0.25,0],[0,0.5,0],[0,0.75,0],[1,0.25,0],[1,0.5,0],[1,0.75,0]];outlineConnect=0;fontColor=#232F3E;fillColor=#01A88D;strokeColor=#ffffff;dashed=0;verticalLabelPosition=bottom;verticalAlign=top;align=center;html=1;fontSize=12;fontStyle=0;aspect=fixed;shape=mxgraph.aws4.resourceIcon;resIcon=mxgraph.aws4.bedrock;" vertex="1" parent="1">
          <mxGeometry x="590" y="219" width="78" height="78" as="geometry" />
        </mxCell>
        <mxCell id="7NhKazvvRvAiaTGZIOiZ-16" value="Bedrock Knowledge Bases backed by OpenSearch Serverless vector database" style="text;html=1;whiteSpace=wrap;strokeColor=none;fillColor=none;align=center;verticalAlign=middle;rounded=0;" vertex="1" parent="1">
          <mxGeometry x="574" y="430" width="110" height="30" as="geometry" />
        </mxCell>
        <mxCell id="7NhKazvvRvAiaTGZIOiZ-17" value="" style="sketch=0;points=[[0,0,0],[0.25,0,0],[0.5,0,0],[0.75,0,0],[1,0,0],[0,1,0],[0.25,1,0],[0.5,1,0],[0.75,1,0],[1,1,0],[0,0.25,0],[0,0.5,0],[0,0.75,0],[1,0.25,0],[1,0.5,0],[1,0.75,0]];outlineConnect=0;fontColor=#232F3E;fillColor=#8C4FFF;strokeColor=#ffffff;dashed=0;verticalLabelPosition=bottom;verticalAlign=top;align=center;html=1;fontSize=12;fontStyle=0;aspect=fixed;shape=mxgraph.aws4.resourceIcon;resIcon=mxgraph.aws4.elasticsearch_service;" vertex="1" parent="1">
          <mxGeometry x="590" y="322" width="78" height="78" as="geometry" />
        </mxCell>
        <mxCell id="7NhKazvvRvAiaTGZIOiZ-18" style="edgeStyle=orthogonalEdgeStyle;rounded=0;orthogonalLoop=1;jettySize=auto;html=1;entryX=0.5;entryY=0;entryDx=0;entryDy=0;entryPerimeter=0;" edge="1" parent="1" source="7NhKazvvRvAiaTGZIOiZ-14" target="7NhKazvvRvAiaTGZIOiZ-17">
          <mxGeometry relative="1" as="geometry" />
        </mxCell>
        <mxCell id="7NhKazvvRvAiaTGZIOiZ-19" value="Store document into vector" style="text;html=1;strokeColor=none;fillColor=none;align=center;verticalAlign=middle;whiteSpace=wrap;rounded=0;" vertex="1" parent="1">
          <mxGeometry x="425" y="260" width="170" height="30" as="geometry" />
        </mxCell>
        <mxCell id="7NhKazvvRvAiaTGZIOiZ-20" value="" style="sketch=0;points=[[0,0,0],[0.25,0,0],[0.5,0,0],[0.75,0,0],[1,0,0],[0,1,0],[0.25,1,0],[0.5,1,0],[0.75,1,0],[1,1,0],[0,0.25,0],[0,0.5,0],[0,0.75,0],[1,0.25,0],[1,0.5,0],[1,0.75,0]];outlineConnect=0;fontColor=#232F3E;fillColor=#7AA116;strokeColor=#ffffff;dashed=0;verticalLabelPosition=bottom;verticalAlign=top;align=center;html=1;fontSize=12;fontStyle=0;aspect=fixed;shape=mxgraph.aws4.resourceIcon;resIcon=mxgraph.aws4.s3;" vertex="1" parent="1">
          <mxGeometry x="490" y="100" width="78" height="78" as="geometry" />
        </mxCell>
        <mxCell id="7NhKazvvRvAiaTGZIOiZ-22" value="Store images to S3" style="text;html=1;whiteSpace=wrap;strokeColor=none;fillColor=none;align=center;verticalAlign=middle;rounded=0;" vertex="1" parent="1">
          <mxGeometry x="530" y="184" width="90" height="30" as="geometry" />
        </mxCell>
        <mxCell id="7NhKazvvRvAiaTGZIOiZ-24" value="Amazon EventBridge" style="text;html=1;whiteSpace=wrap;strokeColor=none;fillColor=none;align=center;verticalAlign=middle;rounded=0;" vertex="1" parent="1">
          <mxGeometry x="335" y="60" width="90" height="30" as="geometry" />
        </mxCell>
        <mxCell id="7NhKazvvRvAiaTGZIOiZ-25" value="Amazon S3" style="text;html=1;whiteSpace=wrap;strokeColor=none;fillColor=none;align=center;verticalAlign=middle;rounded=0;" vertex="1" parent="1">
          <mxGeometry x="484" y="60" width="90" height="30" as="geometry" />
        </mxCell>
        <mxCell id="7NhKazvvRvAiaTGZIOiZ-30" style="edgeStyle=orthogonalEdgeStyle;rounded=0;orthogonalLoop=1;jettySize=auto;html=1;" edge="1" parent="1" source="7NhKazvvRvAiaTGZIOiZ-26" target="7NhKazvvRvAiaTGZIOiZ-29">
          <mxGeometry relative="1" as="geometry" />
        </mxCell>
        <mxCell id="7NhKazvvRvAiaTGZIOiZ-33" style="edgeStyle=orthogonalEdgeStyle;rounded=0;orthogonalLoop=1;jettySize=auto;html=1;" edge="1" parent="1" source="7NhKazvvRvAiaTGZIOiZ-26" target="7NhKazvvRvAiaTGZIOiZ-31">
          <mxGeometry relative="1" as="geometry" />
        </mxCell>
        <mxCell id="7NhKazvvRvAiaTGZIOiZ-26" value="Langgraph on Bedrock AgentCore Runtime" style="whiteSpace=wrap;html=1;aspect=fixed;" vertex="1" parent="1">
          <mxGeometry x="800" y="218" width="80" height="80" as="geometry" />
        </mxCell>
        <mxCell id="7NhKazvvRvAiaTGZIOiZ-28" style="edgeStyle=orthogonalEdgeStyle;rounded=0;orthogonalLoop=1;jettySize=auto;html=1;entryX=1;entryY=0.5;entryDx=0;entryDy=0;entryPerimeter=0;" edge="1" parent="1" source="7NhKazvvRvAiaTGZIOiZ-26" target="7NhKazvvRvAiaTGZIOiZ-14">
          <mxGeometry relative="1" as="geometry" />
        </mxCell>
        <mxCell id="7NhKazvvRvAiaTGZIOiZ-29" value="Bedrock AgentCore Memory" style="whiteSpace=wrap;html=1;aspect=fixed;" vertex="1" parent="1">
          <mxGeometry x="800" y="321" width="80" height="80" as="geometry" />
        </mxCell>
        <mxCell id="7NhKazvvRvAiaTGZIOiZ-31" value="" style="sketch=0;points=[[0,0,0],[0.25,0,0],[0.5,0,0],[0.75,0,0],[1,0,0],[0,1,0],[0.25,1,0],[0.5,1,0],[0.75,1,0],[1,1,0],[0,0.25,0],[0,0.5,0],[0,0.75,0],[1,0.25,0],[1,0.5,0],[1,0.75,0]];outlineConnect=0;fontColor=#232F3E;fillColor=#01A88D;strokeColor=#ffffff;dashed=0;verticalLabelPosition=bottom;verticalAlign=top;align=center;html=1;fontSize=12;fontStyle=0;aspect=fixed;shape=mxgraph.aws4.resourceIcon;resIcon=mxgraph.aws4.bedrock;" vertex="1" parent="1">
          <mxGeometry x="801" y="100" width="78" height="78" as="geometry" />
        </mxCell>
        <mxCell id="7NhKazvvRvAiaTGZIOiZ-32" value="LLM in Amazon Bedrock" style="text;html=1;whiteSpace=wrap;strokeColor=none;fillColor=none;align=center;verticalAlign=middle;rounded=0;" vertex="1" parent="1">
          <mxGeometry x="890" y="124" width="110" height="30" as="geometry" />
        </mxCell>
        <mxCell id="7NhKazvvRvAiaTGZIOiZ-37" style="edgeStyle=orthogonalEdgeStyle;rounded=0;orthogonalLoop=1;jettySize=auto;html=1;" edge="1" parent="1" source="7NhKazvvRvAiaTGZIOiZ-34" target="7NhKazvvRvAiaTGZIOiZ-26">
          <mxGeometry relative="1" as="geometry" />
        </mxCell>
        <mxCell id="7NhKazvvRvAiaTGZIOiZ-39" style="edgeStyle=orthogonalEdgeStyle;rounded=0;orthogonalLoop=1;jettySize=auto;html=1;entryX=1;entryY=0.5;entryDx=0;entryDy=0;entryPerimeter=0;" edge="1" parent="1" source="7NhKazvvRvAiaTGZIOiZ-34" target="7NhKazvvRvAiaTGZIOiZ-20">
          <mxGeometry relative="1" as="geometry">
            <Array as="points">
              <mxPoint x="995" y="90" />
              <mxPoint x="620" y="90" />
              <mxPoint x="620" y="139" />
            </Array>
          </mxGeometry>
        </mxCell>
        <mxCell id="7NhKazvvRvAiaTGZIOiZ-34" value="UI" style="rounded=0;whiteSpace=wrap;html=1;" vertex="1" parent="1">
          <mxGeometry x="960" y="228" width="70" height="60" as="geometry" />
        </mxCell>
        <mxCell id="7NhKazvvRvAiaTGZIOiZ-38" style="edgeStyle=orthogonalEdgeStyle;rounded=0;orthogonalLoop=1;jettySize=auto;html=1;entryX=1;entryY=0.5;entryDx=0;entryDy=0;" edge="1" parent="1" source="7NhKazvvRvAiaTGZIOiZ-35" target="7NhKazvvRvAiaTGZIOiZ-34">
          <mxGeometry relative="1" as="geometry" />
        </mxCell>
        <mxCell id="7NhKazvvRvAiaTGZIOiZ-35" value="" style="shape=actor;whiteSpace=wrap;html=1;" vertex="1" parent="1">
          <mxGeometry x="1110" y="228" width="40" height="60" as="geometry" />
        </mxCell>
        <mxCell id="7NhKazvvRvAiaTGZIOiZ-36" value="User" style="text;html=1;whiteSpace=wrap;strokeColor=none;fillColor=none;align=center;verticalAlign=middle;rounded=0;" vertex="1" parent="1">
          <mxGeometry x="1100" y="291" width="60" height="30" as="geometry" />
        </mxCell>
        <mxCell id="7NhKazvvRvAiaTGZIOiZ-40" value="Display images from S3 with presigned URL" style="text;html=1;whiteSpace=wrap;strokeColor=none;fillColor=none;align=center;verticalAlign=middle;rounded=0;" vertex="1" parent="1">
          <mxGeometry x="770" y="60" width="140" height="30" as="geometry" />
        </mxCell>
        <mxCell id="7NhKazvvRvAiaTGZIOiZ-41" value="Retrieve matching documents" style="text;html=1;whiteSpace=wrap;strokeColor=none;fillColor=none;align=center;verticalAlign=middle;rounded=0;" vertex="1" parent="1">
          <mxGeometry x="684" y="228" width="100" height="30" as="geometry" />
        </mxCell>
        <mxCell id="7NhKazvvRvAiaTGZIOiZ-42" value="Get answer" style="text;html=1;whiteSpace=wrap;strokeColor=none;fillColor=none;align=center;verticalAlign=middle;rounded=0;" vertex="1" parent="1">
          <mxGeometry x="890" y="228" width="60" height="30" as="geometry" />
        </mxCell>
        <mxCell id="7NhKazvvRvAiaTGZIOiZ-43" value="" style="sketch=0;points=[[0,0,0],[0.25,0,0],[0.5,0,0],[0.75,0,0],[1,0,0],[0,1,0],[0.25,1,0],[0.5,1,0],[0.75,1,0],[1,1,0],[0,0.25,0],[0,0.5,0],[0,0.75,0],[1,0.25,0],[1,0.5,0],[1,0.75,0]];outlineConnect=0;fontColor=#232F3E;fillColor=#DD344C;strokeColor=#ffffff;dashed=0;verticalLabelPosition=bottom;verticalAlign=top;align=center;html=1;fontSize=12;fontStyle=0;aspect=fixed;shape=mxgraph.aws4.resourceIcon;resIcon=mxgraph.aws4.secrets_manager;" vertex="1" parent="1">
          <mxGeometry x="230" y="401" width="78" height="78" as="geometry" />
        </mxCell>
        <mxCell id="7NhKazvvRvAiaTGZIOiZ-45" value="Fetch Confluence API token" style="text;html=1;strokeColor=none;fillColor=none;align=center;verticalAlign=middle;whiteSpace=wrap;rounded=0;" vertex="1" parent="1">
          <mxGeometry x="145" y="361" width="120" height="30" as="geometry" />
        </mxCell>
        <mxCell id="7NhKazvvRvAiaTGZIOiZ-46" value="Secrets Manager" style="text;html=1;strokeColor=none;fillColor=none;align=center;verticalAlign=middle;whiteSpace=wrap;rounded=0;" vertex="1" parent="1">
          <mxGeometry x="209" y="479" width="120" height="30" as="geometry" />
        </mxCell>
      </root>
    </mxGraphModel>
  </diagram>
</mxfile>
